<svg width="940" height="273" viewBox="0 0 940 273" fill="none" xmlns="http://www.w3.org/2000/svg">
    <g filter="url(#filter0_d_204_5)">
        <path
            d="M470 15C470 15 478.254 31.544 504.392 31.544C530.529 31.544 740.843 34.138 807.037 31.544C858.452 29.5291 869.63 15 869.63 15C869.63 15 869.63 43.8309 888.029 85.0361C907.237 128.051 925 136.874 925 136.874H470V15Z"
            fill="black" />
        <path
            d="M470 258C470 258 478.254 241.558 504.392 241.558C530.529 241.558 740.843 238.979 807.037 241.558C858.452 243.56 869.63 258 869.63 258C869.63 258 869.63 229.346 888.029 188.394C907.237 145.642 925 136.874 925 136.874H470V258Z"
            fill="black" />
        <path
            d="M470 28.4585C470 28.4585 478.118 43.1755 503.827 43.1755C529.535 43.1755 736.396 45.483 801.503 43.1755C852.074 41.3831 863.068 28.4585 863.068 28.4585C863.068 28.4585 863.068 54.1056 881.165 90.7605C900.057 129.026 917.529 136.874 917.529 136.874H470V28.4585Z"
            fill="#FADEC9" />
        <path
            d="M470 244.542C470 244.542 478.118 229.926 503.827 229.926C529.535 229.926 736.396 227.634 801.503 229.926C852.074 231.706 863.068 244.542 863.068 244.542C863.068 244.542 863.068 219.071 881.165 182.669C900.057 144.668 917.529 136.874 917.529 136.874H470V244.542Z"
            fill="#FADEC9" />
        <path
            d="M470 32.9446C470 32.9446 478.078 47.0527 503.657 47.0527C529.237 47.0527 735.062 49.2647 799.842 47.0527C850.16 45.3345 861.099 32.9446 861.099 32.9446C861.099 32.9446 861.099 57.5305 879.106 92.6687C897.903 129.35 915.287 136.874 915.287 136.874H470V32.9446Z"
            fill="#111111" />
        <path
            d="M470 240.803C470 240.803 478.078 226.695 503.657 226.695C529.237 226.695 735.062 224.483 799.842 226.695C850.16 228.413 861.099 240.803 861.099 240.803C861.099 240.803 861.099 216.217 879.106 181.079C897.903 144.397 915.287 136.874 915.287 136.874H470V240.803Z"
            fill="#111111" />
        <path
            d="M470 15C470 15 461.746 31.544 435.608 31.544C409.471 31.544 199.157 34.138 132.963 31.544C81.5476 29.5291 70.3704 15 70.3704 15C70.3704 15 70.3704 43.8309 51.9709 85.0361C32.7631 128.051 15 136.874 15 136.874H470V15Z"
            fill="black" />
        <path
            d="M470 258C470 258 461.746 241.558 435.608 241.558C409.471 241.558 199.157 238.979 132.963 241.558C81.5476 243.56 70.3704 258 70.3704 258C70.3704 258 70.3703 229.346 51.9709 188.394C32.7631 145.642 15 136.874 15 136.874H470V258Z"
            fill="black" />
        <path
            d="M470 28.4585C470 28.4585 461.882 43.1755 436.173 43.1755C410.465 43.1755 203.604 45.483 138.497 43.1755C87.9261 41.3831 76.9324 28.4585 76.9324 28.4585C76.9324 28.4585 76.9324 54.1056 58.8351 90.7605C39.9427 129.026 22.4712 136.874 22.4712 136.874H470V28.4585Z"
            fill="#FADEC9" />
        <path
            d="M470 244.542C470 244.542 461.882 229.926 436.173 229.926C410.465 229.926 203.604 227.634 138.497 229.926C87.9261 231.706 76.9324 244.542 76.9324 244.542C76.9324 244.542 76.9324 219.071 58.8351 182.669C39.9427 144.668 22.4712 136.874 22.4712 136.874H470V244.542Z"
            fill="#FADEC9" />
        <path
            d="M470 32.9446C470 32.9446 461.922 47.0527 436.343 47.0527C410.763 47.0527 204.938 49.2647 140.157 47.0527C89.8397 45.3345 78.901 32.9446 78.901 32.9446C78.901 32.9446 78.901 57.5305 60.8943 92.6687C42.0966 129.35 24.7126 136.874 24.7126 136.874H470V32.9446Z"
            fill="#111111" />
        <path
            d="M470 240.803C470 240.803 461.922 226.695 436.343 226.695C410.763 226.695 204.938 224.483 140.157 226.695C89.8397 228.413 78.901 240.803 78.901 240.803C78.901 240.803 78.901 216.217 60.8943 181.079C42.0966 144.397 24.7126 136.874 24.7126 136.874H470V240.803Z"
            fill="#111111" />
    </g>
    <g filter="url(#filter1_d_204_5)">
        <path
            d="M856.6 147.14C859.12 147.14 861.15 146.347 862.69 144.76C864.23 143.127 865 141.05 865 138.53C865 135.963 864.113 133.817 862.34 132.09C860.567 130.363 858.397 129.5 855.83 129.5C853.217 129.5 851.163 130.293 849.67 131.88C848.13 133.42 847.36 135.427 847.36 137.9C847.36 140.373 848.27 142.543 850.09 144.41C851.863 146.23 854.033 147.14 856.6 147.14Z"
            fill="black" />
        <path
            d="M862.69 144.76L864.873 146.818L864.858 146.834L864.843 146.849L862.69 144.76ZM862.34 132.09L860.247 134.239L860.247 134.239L862.34 132.09ZM849.67 131.88L851.855 133.936L851.823 133.969L851.791 134.001L849.67 131.88ZM850.09 144.41L852.238 142.316L852.239 142.316L850.09 144.41ZM856.6 144.14C858.433 144.14 859.643 143.592 860.537 142.671L864.843 146.849C862.657 149.101 859.807 150.14 856.6 150.14V144.14ZM860.507 142.702C861.457 141.695 862 140.386 862 138.53H868C868 141.714 867.003 144.558 864.873 146.818L860.507 142.702ZM862 138.53C862 136.739 861.417 135.378 860.247 134.239L864.433 129.941C866.81 132.255 868 135.187 868 138.53H862ZM860.247 134.239C859.057 133.08 857.647 132.5 855.83 132.5V126.5C859.146 126.5 862.077 127.646 864.433 129.941L860.247 134.239ZM855.83 132.5C853.866 132.5 852.669 133.07 851.855 133.936L847.485 129.824C849.657 127.516 852.568 126.5 855.83 126.5V132.5ZM851.791 134.001C850.892 134.901 850.36 136.105 850.36 137.9H844.36C844.36 134.749 845.368 131.939 847.549 129.759L851.791 134.001ZM850.36 137.9C850.36 139.545 850.932 140.976 852.238 142.316L847.942 146.504C845.608 144.111 844.36 141.201 844.36 137.9H850.36ZM852.239 142.316C853.441 143.55 854.833 144.14 856.6 144.14V150.14C853.233 150.14 850.286 148.91 847.941 146.504L852.239 142.316Z"
            fill="#FADEC9" />
    </g>
    <g filter="url(#filter2_d_204_5)">
        <path
            d="M83.4 148.14C80.88 148.14 78.85 147.347 77.31 145.76C75.77 144.127 75 142.05 75 139.53C75 136.963 75.8867 134.817 77.66 133.09C79.4333 131.363 81.6033 130.5 84.17 130.5C86.7833 130.5 88.8367 131.293 90.33 132.88C91.87 134.42 92.64 136.427 92.64 138.9C92.64 141.373 91.73 143.543 89.91 145.41C88.1367 147.23 85.9667 148.14 83.4 148.14Z"
            fill="black" />
        <path
            d="M77.31 145.76L75.1272 147.818L75.1421 147.834L75.1573 147.849L77.31 145.76ZM77.66 133.09L79.7529 135.239L79.7529 135.239L77.66 133.09ZM90.33 132.88L88.1454 134.936L88.1765 134.969L88.2087 135.001L90.33 132.88ZM89.91 145.41L87.762 143.316L87.7613 143.316L89.91 145.41ZM83.4 145.14C81.5674 145.14 80.357 144.592 79.4627 143.671L75.1573 147.849C77.343 150.101 80.1926 151.14 83.4 151.14V145.14ZM79.4928 143.702C78.5434 142.695 78 141.386 78 139.53H72C72 142.714 72.9966 145.558 75.1272 147.818L79.4928 143.702ZM78 139.53C78 137.739 78.5831 136.378 79.7529 135.239L75.5672 130.941C73.1902 133.255 72 136.187 72 139.53H78ZM79.7529 135.239C80.9434 134.08 82.353 133.5 84.17 133.5V127.5C80.8537 127.5 77.9232 128.646 75.5672 130.941L79.7529 135.239ZM84.17 133.5C86.1344 133.5 87.3306 134.07 88.1454 134.936L92.5146 130.824C90.3427 128.516 87.4322 127.5 84.17 127.5V133.5ZM88.2087 135.001C89.1081 135.901 89.64 137.105 89.64 138.9H95.64C95.64 135.749 94.6319 132.939 92.4513 130.759L88.2087 135.001ZM89.64 138.9C89.64 140.545 89.0684 141.976 87.762 143.316L92.058 147.504C94.3916 145.111 95.64 142.201 95.64 138.9H89.64ZM87.7613 143.316C86.559 144.55 85.1667 145.14 83.4 145.14V151.14C86.7666 151.14 89.7143 149.91 92.0587 147.504L87.7613 143.316Z"
            fill="#FADEC9" />
    </g>
    <g filter="url(#filter3_d_204_5)">
        <path
            d="M192.9 140.5H202.6V166.8C196.867 169.067 189.967 170.2 181.9 170.2C172.1 170.2 163.667 167.6 156.6 162.4C153.133 159.8 150.367 156.4 148.3 152.2C146.233 147.933 145.2 143.233 145.2 138.1C145.2 132.967 146 128.367 147.6 124.3C149.2 120.167 151.267 116.733 153.8 114C156.4 111.267 159.4 108.933 162.8 107C169.133 103.4 176.1 101.6 183.7 101.6C186.633 101.6 189.8 101.933 193.2 102.6C196.6 103.267 199.2 103.967 201 104.7L200 111.4C191 107.6 183.533 105.7 177.6 105.7C170.867 107.433 165.533 111 161.6 116.4C157.733 121.8 155.8 128.4 155.8 136.2C155.8 145.933 158.367 153.467 163.5 158.8C168.633 164.067 175.4 166.7 183.8 166.7C187.133 166.7 190.167 166.367 192.9 165.7V140.5ZM236.269 137.4V169H226.469V102.8H248.069C254.802 102.8 260.302 104.3 264.569 107.3C268.902 110.3 271.069 114.267 271.069 119.2C271.069 124.067 269.335 127.933 265.869 130.8C262.469 133.6 257.835 135.533 251.969 136.6L278.769 169L267.169 170.4L243.969 137.4H236.269ZM236.269 134.4H242.669C254.669 134.4 260.669 129.667 260.669 120.2C260.669 118.6 260.269 116.8 259.469 114.8C257.935 110.6 254.669 107.833 249.669 106.5C245.135 106.5 240.669 107.067 236.269 108.2V134.4ZM289.738 169L319.438 101.2H320.938L350.638 169H339.738L332.238 151H302.538L295.138 169H289.738ZM304.038 147.2H330.638L317.438 114.8L304.038 147.2ZM387.96 169H378.26V144.4L355.66 102.8H366.56L385.06 140.8L402.36 102.8H407.36L387.96 143.9V169ZM468.024 136.2V169H458.324V102.8H468.024V132.4H498.324V102.8H508.024V169H498.324V136.2H468.024ZM563.6 101.6C572.267 101.6 579.433 104.467 585.1 110.2C590.767 115.867 593.6 123.767 593.6 133.9C593.6 140.433 592.467 146.167 590.2 151.1C587.933 155.967 584.967 159.733 581.3 162.4C574.167 167.6 566.3 170.2 557.7 170.2C549.1 170.2 541.967 167.333 536.3 161.6C530.7 155.8 527.9 147.833 527.9 137.7C527.9 132.433 528.633 127.7 530.1 123.5C531.633 119.233 533.6 115.767 536 113.1C538.467 110.433 541.3 108.2 544.5 106.4C550.367 103.2 556.733 101.6 563.6 101.6ZM543.5 157.6C545.233 160.533 547.567 162.833 550.5 164.5C553.433 166.1 556.8 166.9 560.6 166.9C564.467 166.9 567.9 165.933 570.9 164C573.9 162.067 576.233 159.533 577.9 156.4C581.3 150.133 583 143.4 583 136.2C583 127.333 581.233 120.2 577.7 114.8C573.767 108.733 567.267 105.7 558.2 105.7C551.733 107.967 546.833 111.867 543.5 117.4C540.167 122.933 538.5 129.2 538.5 136.2C538.5 144.733 540.167 151.867 543.5 157.6ZM662.661 102.8V143.4C662.661 149.6 661.994 154.267 660.661 157.4C660.061 158.8 659.094 160.4 657.761 162.2C656.494 163.933 654.994 165.333 653.261 166.4C648.861 168.933 643.361 170.2 636.761 170.2C620.228 170.2 611.961 161.7 611.961 144.7V102.8H622.161V145.5C622.161 147.433 622.194 149 622.261 150.2C622.328 151.4 622.661 153.1 623.261 155.3C623.928 157.5 624.794 159.267 625.861 160.6C626.994 161.933 628.728 163.133 631.061 164.2C633.461 165.267 636.294 165.8 639.561 165.8C652.028 165.8 658.261 159.133 658.261 145.8V102.8H662.661ZM693.884 114.3C693.884 117.233 695.017 119.967 697.284 122.5C699.617 124.967 702.417 127.167 705.684 129.1C709.017 130.967 712.317 132.9 715.584 134.9C718.85 136.833 721.617 139.233 723.884 142.1C726.217 144.967 727.384 148.133 727.384 151.6C727.384 157.067 725.35 161.533 721.284 165C717.284 168.467 711.85 170.2 704.984 170.2C698.117 170.2 691.317 168.9 684.584 166.3V161.6C691.384 165 697.15 166.7 701.884 166.7C706.684 166.7 710.417 165.533 713.084 163.2C715.75 160.867 717.084 157.633 717.084 153.5C717.084 150.7 715.984 148.167 713.784 145.9C711.584 143.567 708.917 141.567 705.784 139.9C702.65 138.167 699.517 136.4 696.384 134.6C693.25 132.8 690.584 130.533 688.384 127.8C686.184 125 685.084 121.633 685.084 117.7C685.084 113.767 686.817 110.1 690.284 106.7C693.817 103.3 699.05 101.6 705.984 101.6C710.517 101.6 716.25 102.633 723.184 104.7L722.184 111.5C713.184 107.633 705.484 105.7 699.084 105.7C695.617 107.367 693.884 110.233 693.884 114.3ZM749.75 169V102.8H789.85L788.85 109.5L770.25 106.4C766.983 106.4 763.383 106.967 759.45 108.1V132.4H781.65V136.2H759.45V165.4L790.45 162.3L789.45 169H749.75Z"
            fill="black" />
        <path
            d="M192.9 140.5V136.5H188.9V140.5H192.9ZM202.6 140.5H206.6V136.5H202.6V140.5ZM202.6 166.8L204.071 170.52L206.6 169.52V166.8H202.6ZM156.6 162.4L154.2 165.6L154.215 165.611L154.229 165.622L156.6 162.4ZM148.3 152.2L144.7 153.944L144.705 153.955L144.711 153.966L148.3 152.2ZM147.6 124.3L151.322 125.764L151.326 125.754L151.33 125.744L147.6 124.3ZM153.8 114L150.902 111.243L150.884 111.262L150.866 111.281L153.8 114ZM162.8 107L160.823 103.523L160.823 103.523L162.8 107ZM193.2 102.6L192.43 106.525L193.2 102.6ZM201 104.7L204.956 105.29L205.42 102.182L202.509 100.996L201 104.7ZM200 111.4L198.444 115.085L203.195 117.091L203.956 111.99L200 111.4ZM177.6 105.7V101.7H177.093L176.603 101.826L177.6 105.7ZM161.6 116.4L158.367 114.045L158.357 114.058L158.348 114.071L161.6 116.4ZM163.5 158.8L160.618 161.574L160.627 161.583L160.636 161.592L163.5 158.8ZM192.9 165.7L193.848 169.586L196.9 168.842V165.7H192.9ZM192.9 144.5H202.6V136.5H192.9V144.5ZM198.6 140.5V166.8H206.6V140.5H198.6ZM201.129 163.08C195.984 165.114 189.611 166.2 181.9 166.2V174.2C190.323 174.2 197.749 173.019 204.071 170.52L201.129 163.08ZM181.9 166.2C172.848 166.2 165.271 163.814 158.971 159.178L154.229 165.622C162.063 171.386 171.352 174.2 181.9 174.2V166.2ZM159 159.2C156.077 157.008 153.701 154.115 151.889 150.434L144.711 153.966C147.033 158.685 150.19 162.592 154.2 165.6L159 159.2ZM151.9 150.456C150.118 146.777 149.2 142.68 149.2 138.1H141.2C141.2 143.786 142.349 149.089 144.7 153.944L151.9 150.456ZM149.2 138.1C149.2 133.382 149.935 129.291 151.322 125.764L143.878 122.836C142.065 127.442 141.2 132.551 141.2 138.1H149.2ZM151.33 125.744C152.782 121.995 154.603 119.019 156.734 116.719L150.866 111.281C147.931 114.448 145.618 118.339 143.87 122.856L151.33 125.744ZM156.698 116.757C159.018 114.318 161.705 112.224 164.777 110.477L160.823 103.523C157.095 105.643 153.782 108.216 150.902 111.243L156.698 116.757ZM164.777 110.477C170.481 107.235 176.762 105.6 183.7 105.6V97.6C175.438 97.6 167.786 99.565 160.823 103.523L164.777 110.477ZM183.7 105.6C186.334 105.6 189.24 105.9 192.43 106.525L193.97 98.6747C190.36 97.967 186.933 97.6 183.7 97.6V105.6ZM192.43 106.525C195.741 107.174 198.046 107.816 199.491 108.404L202.509 100.996C200.354 100.118 197.459 99.359 193.97 98.6747L192.43 106.525ZM197.044 104.11L196.044 110.81L203.956 111.99L204.956 105.29L197.044 104.11ZM201.556 107.715C192.341 103.824 184.304 101.7 177.6 101.7V109.7C182.763 109.7 189.659 111.376 198.444 115.085L201.556 107.715ZM176.603 101.826C169.01 103.781 162.87 107.862 158.367 114.045L164.833 118.755C168.196 114.138 172.723 111.086 178.597 109.574L176.603 101.826ZM158.348 114.071C153.914 120.263 151.8 127.715 151.8 136.2H159.8C159.8 129.085 161.552 123.337 164.852 118.729L158.348 114.071ZM151.8 136.2C151.8 146.632 154.564 155.284 160.618 161.574L166.382 156.026C162.169 151.649 159.8 145.235 159.8 136.2H151.8ZM160.636 161.592C166.631 167.743 174.489 170.7 183.8 170.7V162.7C176.311 162.7 170.636 160.39 166.364 156.008L160.636 161.592ZM183.8 170.7C187.396 170.7 190.753 170.341 193.848 169.586L191.952 161.814C189.58 162.393 186.871 162.7 183.8 162.7V170.7ZM196.9 165.7V140.5H188.9V165.7H196.9ZM236.269 137.4V133.4H232.269V137.4H236.269ZM236.269 169V173H240.269V169H236.269ZM226.469 169H222.469V173H226.469V169ZM226.469 102.8V98.8H222.469V102.8H226.469ZM264.569 107.3L262.268 110.572L262.28 110.58L262.292 110.589L264.569 107.3ZM265.869 130.8L268.412 133.888L268.418 133.883L265.869 130.8ZM251.969 136.6L251.253 132.665L244.533 133.886L248.887 139.149L251.969 136.6ZM278.769 169L279.248 172.971L286.519 172.094L281.851 166.451L278.769 169ZM267.169 170.4L263.896 172.7L265.273 174.658L267.648 174.371L267.169 170.4ZM243.969 137.4L247.241 135.099L246.046 133.4H243.969V137.4ZM236.269 134.4H232.269V138.4H236.269V134.4ZM259.469 114.8L255.711 116.172L255.732 116.229L255.755 116.286L259.469 114.8ZM249.669 106.5L250.699 102.635L250.193 102.5H249.669V106.5ZM236.269 108.2L235.271 104.326L232.269 105.1V108.2H236.269ZM232.269 137.4V169H240.269V137.4H232.269ZM236.269 165H226.469V173H236.269V165ZM230.469 169V102.8H222.469V169H230.469ZM226.469 106.8H248.069V98.8H226.469V106.8ZM248.069 106.8C254.217 106.8 258.847 108.167 262.268 110.572L266.869 104.028C261.757 100.433 255.387 98.8 248.069 98.8V106.8ZM262.292 110.589C265.633 112.902 267.069 115.682 267.069 119.2H275.069C275.069 112.852 272.171 107.698 266.846 104.011L262.292 110.589ZM267.069 119.2C267.069 122.985 265.785 125.679 263.32 127.717L268.418 133.883C272.886 130.188 275.069 125.148 275.069 119.2H267.069ZM263.326 127.712C260.606 129.952 256.676 131.679 251.253 132.665L252.684 140.535C258.995 139.388 264.331 137.248 268.412 133.888L263.326 127.712ZM248.887 139.149L275.687 171.549L281.851 166.451L255.051 134.051L248.887 139.149ZM278.289 165.029L266.689 166.429L267.648 174.371L279.248 172.971L278.289 165.029ZM270.441 168.1L247.241 135.099L240.696 139.7L263.896 172.7L270.441 168.1ZM243.969 133.4H236.269V141.4H243.969V133.4ZM236.269 138.4H242.669V130.4H236.269V138.4ZM242.669 138.4C249.086 138.4 254.638 137.152 258.646 133.99C262.835 130.686 264.669 125.836 264.669 120.2H256.669C256.669 124.031 255.502 126.281 253.691 127.71C251.7 129.281 248.251 130.4 242.669 130.4V138.4ZM264.669 120.2C264.669 117.948 264.11 115.633 263.183 113.314L255.755 116.286C256.427 117.967 256.669 119.252 256.669 120.2H264.669ZM263.226 113.428C261.17 107.795 256.732 104.244 250.699 102.635L248.638 110.365C252.605 111.423 254.701 113.405 255.711 116.172L263.226 113.428ZM249.669 102.5C244.798 102.5 239.996 103.109 235.271 104.326L237.266 112.074C241.341 111.024 245.473 110.5 249.669 110.5V102.5ZM232.269 108.2V134.4H240.269V108.2H232.269ZM289.738 169L286.074 167.395L283.619 173H289.738V169ZM319.438 101.2V97.2H316.824L315.774 99.595L319.438 101.2ZM320.938 101.2L324.602 99.595L323.553 97.2H320.938V101.2ZM350.638 169V173H356.757L354.302 167.395L350.638 169ZM339.738 169L336.046 170.538L337.072 173H339.738V169ZM332.238 151L335.931 149.462L334.905 147H332.238V151ZM302.538 151V147H299.858L298.839 149.479L302.538 151ZM295.138 169V173H297.819L298.838 170.521L295.138 169ZM304.038 147.2L300.342 145.671L298.055 151.2H304.038V147.2ZM330.638 147.2V151.2H336.587L334.343 145.691L330.638 147.2ZM317.438 114.8L321.143 113.291L317.466 104.267L313.742 113.271L317.438 114.8ZM293.402 170.605L323.102 102.805L315.774 99.595L286.074 167.395L293.402 170.605ZM319.438 105.2H320.938V97.2H319.438V105.2ZM317.274 102.805L346.974 170.605L354.302 167.395L324.602 99.595L317.274 102.805ZM350.638 165H339.738V173H350.638V165ZM343.431 167.462L335.931 149.462L328.546 152.538L336.046 170.538L343.431 167.462ZM332.238 147H302.538V155H332.238V147ZM298.839 149.479L291.439 167.479L298.838 170.521L306.238 152.521L298.839 149.479ZM295.138 165H289.738V173H295.138V165ZM304.038 151.2H330.638V143.2H304.038V151.2ZM334.343 145.691L321.143 113.291L313.734 116.309L326.934 148.709L334.343 145.691ZM313.742 113.271L300.342 145.671L307.735 148.729L321.135 116.329L313.742 113.271ZM387.96 169V173H391.96V169H387.96ZM378.26 169H374.26V173H378.26V169ZM378.26 144.4H382.26V143.384L381.775 142.491L378.26 144.4ZM355.66 102.8V98.8H348.935L352.145 104.709L355.66 102.8ZM366.56 102.8L370.157 101.049L369.062 98.8H366.56V102.8ZM385.06 140.8L381.464 142.551L385.181 150.187L388.701 142.457L385.06 140.8ZM402.36 102.8V98.8H399.786L398.72 101.143L402.36 102.8ZM407.36 102.8L410.977 104.507L413.671 98.8H407.36V102.8ZM387.96 143.9L384.343 142.193L383.96 143.003V143.9H387.96ZM387.96 165H378.26V173H387.96V165ZM382.26 169V144.4H374.26V169H382.26ZM381.775 142.491L359.175 100.891L352.145 104.709L374.745 146.309L381.775 142.491ZM355.66 106.8H366.56V98.8H355.66V106.8ZM362.964 104.551L381.464 142.551L388.657 139.049L370.157 101.049L362.964 104.551ZM388.701 142.457L406.001 104.457L398.72 101.143L381.42 139.143L388.701 142.457ZM402.36 106.8H407.36V98.8H402.36V106.8ZM403.743 101.093L384.343 142.193L391.577 145.607L410.977 104.507L403.743 101.093ZM383.96 143.9V169H391.96V143.9H383.96ZM468.024 136.2V132.2H464.024V136.2H468.024ZM468.024 169V173H472.024V169H468.024ZM458.324 169H454.324V173H458.324V169ZM458.324 102.8V98.8H454.324V102.8H458.324ZM468.024 102.8H472.024V98.8H468.024V102.8ZM468.024 132.4H464.024V136.4H468.024V132.4ZM498.324 132.4V136.4H502.324V132.4H498.324ZM498.324 102.8V98.8H494.324V102.8H498.324ZM508.024 102.8H512.024V98.8H508.024V102.8ZM508.024 169V173H512.024V169H508.024ZM498.324 169H494.324V173H498.324V169ZM498.324 136.2H502.324V132.2H498.324V136.2ZM464.024 136.2V169H472.024V136.2H464.024ZM468.024 165H458.324V173H468.024V165ZM462.324 169V102.8H454.324V169H462.324ZM458.324 106.8H468.024V98.8H458.324V106.8ZM464.024 102.8V132.4H472.024V102.8H464.024ZM468.024 136.4H498.324V128.4H468.024V136.4ZM502.324 132.4V102.8H494.324V132.4H502.324ZM498.324 106.8H508.024V98.8H498.324V106.8ZM504.024 102.8V169H512.024V102.8H504.024ZM508.024 165H498.324V173H508.024V165ZM502.324 169V136.2H494.324V169H502.324ZM498.324 132.2H468.024V140.2H498.324V132.2ZM585.1 110.2L582.255 113.012L582.263 113.02L582.272 113.028L585.1 110.2ZM590.2 151.1L593.826 152.789L593.83 152.779L593.835 152.77L590.2 151.1ZM581.3 162.4L578.947 159.165L578.944 159.168L581.3 162.4ZM536.3 161.6L533.422 164.378L533.439 164.395L533.455 164.412L536.3 161.6ZM530.1 123.5L526.336 122.147L526.33 122.164L526.324 122.181L530.1 123.5ZM536 113.1L533.064 110.384L533.045 110.404L533.027 110.424L536 113.1ZM544.5 106.4L542.585 102.888L542.562 102.901L542.539 102.914L544.5 106.4ZM543.5 157.6L540.042 159.61L540.049 159.623L540.056 159.635L543.5 157.6ZM550.5 164.5L548.524 167.978L548.554 167.995L548.585 168.012L550.5 164.5ZM570.9 164L573.067 167.362L573.067 167.362L570.9 164ZM577.9 156.4L574.384 154.492L574.376 154.507L574.369 154.522L577.9 156.4ZM577.7 114.8L574.344 116.976L574.348 116.983L574.353 116.99L577.7 114.8ZM558.2 105.7V101.7H557.519L556.877 101.925L558.2 105.7ZM543.5 117.4L546.926 119.464L546.926 119.464L543.5 117.4ZM563.6 105.6C571.287 105.6 577.4 108.1 582.255 113.012L587.945 107.388C581.467 100.834 573.247 97.6 563.6 97.6V105.6ZM582.272 113.028C587.002 117.759 589.6 124.532 589.6 133.9H597.6C597.6 123.001 594.531 113.974 587.928 107.372L582.272 113.028ZM589.6 133.9C589.6 139.972 588.547 145.116 586.565 149.43L593.835 152.77C596.386 147.217 597.6 140.895 597.6 133.9H589.6ZM586.574 149.411C584.541 153.776 581.972 156.965 578.947 159.165L583.653 165.635C587.961 162.502 591.326 158.157 593.826 152.789L586.574 149.411ZM578.944 159.168C572.475 163.883 565.429 166.2 557.7 166.2V174.2C567.171 174.2 575.858 171.317 583.656 165.632L578.944 159.168ZM557.7 166.2C550.09 166.2 544.006 163.707 539.145 158.788L533.455 164.412C539.927 170.96 548.11 174.2 557.7 174.2V166.2ZM539.178 158.822C534.471 153.947 531.9 147.076 531.9 137.7H523.9C523.9 148.591 526.929 157.653 533.422 164.378L539.178 158.822ZM531.9 137.7C531.9 132.802 532.582 128.525 533.876 124.819L526.324 122.181C524.685 126.875 523.9 132.065 523.9 137.7H531.9ZM533.864 124.853C535.267 120.95 536.998 117.97 538.973 115.776L533.027 110.424C530.202 113.563 528 117.516 526.336 122.147L533.864 124.853ZM538.936 115.816C541.117 113.459 543.62 111.484 546.461 109.886L542.539 102.914C538.98 104.916 535.816 107.408 533.064 110.384L538.936 115.816ZM546.415 109.912C551.678 107.041 557.383 105.6 563.6 105.6V97.6C556.083 97.6 549.055 99.3589 542.585 102.888L546.415 109.912ZM540.056 159.635C542.141 163.163 544.978 165.963 548.524 167.978L552.476 161.022C550.156 159.704 548.326 157.904 546.944 155.565L540.056 159.635ZM548.585 168.012C552.182 169.974 556.224 170.9 560.6 170.9V162.9C557.376 162.9 554.685 162.226 552.415 160.988L548.585 168.012ZM560.6 170.9C565.168 170.9 569.367 169.747 573.067 167.362L568.733 160.638C566.433 162.12 563.765 162.9 560.6 162.9V170.9ZM573.067 167.362C576.638 165.061 579.442 162.018 581.431 158.278L574.369 154.522C573.024 157.048 571.162 159.072 568.733 160.638L573.067 167.362ZM581.416 158.308C585.137 151.449 587 144.059 587 136.2H579C579 142.741 577.463 148.817 574.384 154.492L581.416 158.308ZM587 136.2C587 126.837 585.138 118.862 581.047 112.61L574.353 116.99C577.329 121.538 579 127.83 579 136.2H587ZM581.056 112.624C576.195 105.126 568.23 101.7 558.2 101.7V109.7C566.303 109.7 571.338 112.341 574.344 116.976L581.056 112.624ZM556.877 101.925C549.589 104.48 543.918 108.954 540.074 115.336L546.926 119.464C549.749 114.779 553.878 111.454 559.523 109.475L556.877 101.925ZM540.074 115.336C536.334 121.544 534.5 128.536 534.5 136.2H542.5C542.5 129.864 544 124.322 546.926 119.464L540.074 115.336ZM534.5 136.2C534.5 145.241 536.266 153.115 540.042 159.61L546.958 155.59C544.068 150.618 542.5 144.225 542.5 136.2H534.5ZM662.661 102.8H666.661V98.8H662.661V102.8ZM660.661 157.4L664.338 158.976L664.342 158.966L660.661 157.4ZM657.761 162.2L654.547 159.819L654.539 159.829L654.531 159.84L657.761 162.2ZM653.261 166.4L655.257 169.866L655.308 169.837L655.357 169.807L653.261 166.4ZM611.961 102.8V98.8H607.961V102.8H611.961ZM622.161 102.8H626.161V98.8H622.161V102.8ZM623.261 155.3L619.402 156.352L619.417 156.406L619.433 156.46L623.261 155.3ZM625.861 160.6L622.737 163.099L622.775 163.145L622.813 163.191L625.861 160.6ZM631.061 164.2L629.398 167.838L629.417 167.847L629.436 167.855L631.061 164.2ZM658.261 102.8V98.8H654.261V102.8H658.261ZM658.661 102.8V143.4H666.661V102.8H658.661ZM658.661 143.4C658.661 149.431 657.995 153.449 656.98 155.834L664.342 158.966C665.994 155.084 666.661 149.769 666.661 143.4H658.661ZM656.984 155.824C656.549 156.839 655.773 158.163 654.547 159.819L660.975 164.581C662.415 162.637 663.573 160.761 664.338 158.976L656.984 155.824ZM654.531 159.84C653.554 161.178 652.432 162.213 651.165 162.993L655.357 169.807C657.557 168.453 659.435 166.689 660.991 164.56L654.531 159.84ZM651.265 162.934C647.628 165.028 642.865 166.2 636.761 166.2V174.2C643.857 174.2 650.094 172.839 655.257 169.866L651.265 162.934ZM636.761 166.2C629.14 166.2 624.152 164.247 621.028 161.036C617.885 157.804 615.961 152.611 615.961 144.7H607.961C607.961 153.789 610.17 161.346 615.293 166.614C620.437 171.903 627.849 174.2 636.761 174.2V166.2ZM615.961 144.7V102.8H607.961V144.7H615.961ZM611.961 106.8H622.161V98.8H611.961V106.8ZM618.161 102.8V145.5H626.161V102.8H618.161ZM618.161 145.5C618.161 147.469 618.195 149.118 618.267 150.422L626.255 149.978C626.194 148.882 626.161 147.398 626.161 145.5H618.161ZM618.267 150.422C618.358 152.051 618.781 154.077 619.402 156.352L627.12 154.248C626.541 152.123 626.298 150.749 626.255 149.978L618.267 150.422ZM619.433 156.46C620.199 158.988 621.264 161.256 622.737 163.099L628.984 158.101C628.325 157.277 627.656 156.012 627.089 154.14L619.433 156.46ZM622.813 163.191C624.46 165.128 626.76 166.632 629.398 167.838L632.724 160.562C630.695 159.635 629.528 158.738 628.909 158.009L622.813 163.191ZM629.436 167.855C632.456 169.197 635.867 169.8 639.561 169.8V161.8C636.721 161.8 634.465 161.336 632.685 160.545L629.436 167.855ZM639.561 169.8C646.482 169.8 652.389 167.937 656.508 163.532C660.579 159.178 662.261 153.019 662.261 145.8H654.261C654.261 151.914 652.826 155.756 650.664 158.068C648.549 160.33 645.106 161.8 639.561 161.8V169.8ZM662.261 145.8V102.8H654.261V145.8H662.261ZM658.261 106.8H662.661V98.8H658.261V106.8ZM697.284 122.5L694.303 125.167L694.34 125.209L694.378 125.249L697.284 122.5ZM705.684 129.1L703.646 132.542L703.687 132.567L703.729 132.59L705.684 129.1ZM715.584 134.9L713.495 138.311L713.521 138.327L713.546 138.342L715.584 134.9ZM723.884 142.1L720.746 144.581L720.763 144.603L720.781 144.625L723.884 142.1ZM721.284 165L718.689 161.956L718.676 161.967L718.664 161.977L721.284 165ZM684.584 166.3H680.584V169.043L683.143 170.031L684.584 166.3ZM684.584 161.6L686.372 158.022L680.584 155.128V161.6H684.584ZM713.084 163.2L710.45 160.19L710.45 160.19L713.084 163.2ZM713.784 145.9L710.873 148.644L710.893 148.665L710.913 148.686L713.784 145.9ZM705.784 139.9L703.847 143.4L703.876 143.416L703.905 143.431L705.784 139.9ZM688.384 127.8L685.238 130.271L685.253 130.29L685.268 130.308L688.384 127.8ZM690.284 106.7L687.51 103.818L687.496 103.831L687.483 103.844L690.284 106.7ZM723.184 104.7L727.141 105.282L727.645 101.856L724.326 100.867L723.184 104.7ZM722.184 111.5L720.605 115.175L725.384 117.229L726.141 112.082L722.184 111.5ZM699.084 105.7V101.7H698.172L697.35 102.095L699.084 105.7ZM689.884 114.3C689.884 118.372 691.491 122.024 694.303 125.167L700.265 119.833C698.543 117.909 697.884 116.095 697.884 114.3H689.884ZM694.378 125.249C696.995 128.016 700.096 130.441 703.646 132.542L707.721 125.658C704.737 123.892 702.239 121.918 700.189 119.751L694.378 125.249ZM703.729 132.59C707.017 134.431 710.272 136.338 713.495 138.311L717.672 131.489C714.361 129.462 711.017 127.502 707.638 125.61L703.729 132.59ZM713.546 138.342C716.407 140.035 718.796 142.114 720.746 144.581L727.021 139.619C724.438 136.352 721.294 133.631 717.621 131.458L713.546 138.342ZM720.781 144.625C722.575 146.829 723.384 149.117 723.384 151.6H731.384C731.384 147.15 729.859 143.104 726.986 139.575L720.781 144.625ZM723.384 151.6C723.384 155.926 721.84 159.269 718.689 161.956L723.879 168.044C728.86 163.798 731.384 158.207 731.384 151.6H723.384ZM718.664 161.977C715.585 164.646 711.18 166.2 704.984 166.2V174.2C712.52 174.2 718.982 172.288 723.903 168.023L718.664 161.977ZM704.984 166.2C698.635 166.2 692.322 165 686.024 162.569L683.143 170.031C690.312 172.8 697.599 174.2 704.984 174.2V166.2ZM688.584 166.3V161.6H680.584V166.3H688.584ZM682.795 165.178C689.85 168.705 696.264 170.7 701.884 170.7V162.7C698.037 162.7 692.917 161.295 686.372 158.022L682.795 165.178ZM701.884 170.7C707.306 170.7 712.098 169.378 715.718 166.21L710.45 160.19C708.736 161.689 706.061 162.7 701.884 162.7V170.7ZM715.718 166.21C719.4 162.988 721.084 158.575 721.084 153.5H713.084C713.084 156.692 712.1 158.745 710.45 160.19L715.718 166.21ZM721.084 153.5C721.084 149.524 719.478 146.023 716.654 143.114L710.913 148.686C712.49 150.31 713.084 151.876 713.084 153.5H721.084ZM716.694 143.156C714.165 140.474 711.139 138.218 707.662 136.369L703.905 143.431C706.695 144.915 709.002 146.66 710.873 148.644L716.694 143.156ZM707.72 136.4C704.606 134.677 701.491 132.921 698.376 131.132L694.391 138.068C697.543 139.879 700.695 141.656 703.847 143.4L707.72 136.4ZM698.376 131.132C695.661 129.572 693.379 127.627 691.5 125.292L685.268 130.308C687.788 133.44 690.84 136.028 694.391 138.068L698.376 131.132ZM691.529 125.329C689.941 123.308 689.084 120.836 689.084 117.7H681.084C681.084 122.43 682.426 126.692 685.238 130.271L691.529 125.329ZM689.084 117.7C689.084 115.082 690.193 112.391 693.084 109.556L687.483 103.844C683.44 107.809 681.084 112.451 681.084 117.7H689.084ZM693.057 109.582C695.584 107.151 699.654 105.6 705.984 105.6V97.6C698.446 97.6 692.05 99.4493 687.51 103.818L693.057 109.582ZM705.984 105.6C709.97 105.6 715.286 106.52 722.041 108.533L724.326 100.867C717.215 98.7469 711.064 97.6 705.984 97.6V105.6ZM719.226 104.118L718.226 110.918L726.141 112.082L727.141 105.282L719.226 104.118ZM723.763 107.825C714.502 103.846 706.237 101.7 699.084 101.7V109.7C704.731 109.7 711.865 111.42 720.605 115.175L723.763 107.825ZM697.35 102.095C695.023 103.214 693.087 104.837 691.761 107.03C690.443 109.209 689.884 111.693 689.884 114.3H697.884C697.884 112.84 698.191 111.857 698.607 111.17C699.014 110.496 699.677 109.853 700.817 109.305L697.35 102.095ZM749.75 169H745.75V173H749.75V169ZM749.75 102.8V98.8H745.75V102.8H749.75ZM789.85 102.8L793.806 103.39L794.491 98.8H789.85V102.8ZM788.85 109.5L788.192 113.446L792.206 114.114L792.806 110.09L788.85 109.5ZM770.25 106.4L770.908 102.454L770.581 102.4H770.25V106.4ZM759.45 108.1L758.343 104.256L755.45 105.09V108.1H759.45ZM759.45 132.4H755.45V136.4H759.45V132.4ZM781.65 132.4H785.65V128.4H781.65V132.4ZM781.65 136.2V140.2H785.65V136.2H781.65ZM759.45 136.2V132.2H755.45V136.2H759.45ZM759.45 165.4H755.45V169.82L759.848 169.38L759.45 165.4ZM790.45 162.3L794.406 162.89L795.165 157.809L790.052 158.32L790.45 162.3ZM789.45 169V173H792.897L793.406 169.59L789.45 169ZM753.75 169V102.8H745.75V169H753.75ZM749.75 106.8H789.85V98.8H749.75V106.8ZM785.894 102.21L784.894 108.91L792.806 110.09L793.806 103.39L785.894 102.21ZM789.508 105.554L770.908 102.454L769.592 110.346L788.192 113.446L789.508 105.554ZM770.25 102.4C766.528 102.4 762.549 103.044 758.343 104.256L760.557 111.944C764.217 110.889 767.439 110.4 770.25 110.4V102.4ZM755.45 108.1V132.4H763.45V108.1H755.45ZM759.45 136.4H781.65V128.4H759.45V136.4ZM777.65 132.4V136.2H785.65V132.4H777.65ZM781.65 132.2H759.45V140.2H781.65V132.2ZM755.45 136.2V165.4H763.45V136.2H755.45ZM759.848 169.38L790.848 166.28L790.052 158.32L759.052 161.42L759.848 169.38ZM786.494 161.71L785.494 168.41L793.406 169.59L794.406 162.89L786.494 161.71ZM789.45 165H749.75V173H789.45V165Z"
            fill="#FADEC9" />
    </g>
    <g filter="url(#filter4_d_204_5)">
        <path
            d="M192.9 140.5H202.6V166.8C196.867 169.067 189.967 170.2 181.9 170.2C172.1 170.2 163.667 167.6 156.6 162.4C153.133 159.8 150.367 156.4 148.3 152.2C146.233 147.933 145.2 143.233 145.2 138.1C145.2 132.967 146 128.367 147.6 124.3C149.2 120.167 151.267 116.733 153.8 114C156.4 111.267 159.4 108.933 162.8 107C169.133 103.4 176.1 101.6 183.7 101.6C186.633 101.6 189.8 101.933 193.2 102.6C196.6 103.267 199.2 103.967 201 104.7L200 111.4C191 107.6 183.533 105.7 177.6 105.7C170.867 107.433 165.533 111 161.6 116.4C157.733 121.8 155.8 128.4 155.8 136.2C155.8 145.933 158.367 153.467 163.5 158.8C168.633 164.067 175.4 166.7 183.8 166.7C187.133 166.7 190.167 166.367 192.9 165.7V140.5ZM236.269 137.4V169H226.469V102.8H248.069C254.802 102.8 260.302 104.3 264.569 107.3C268.902 110.3 271.069 114.267 271.069 119.2C271.069 124.067 269.335 127.933 265.869 130.8C262.469 133.6 257.835 135.533 251.969 136.6L278.769 169L267.169 170.4L243.969 137.4H236.269ZM236.269 134.4H242.669C254.669 134.4 260.669 129.667 260.669 120.2C260.669 118.6 260.269 116.8 259.469 114.8C257.935 110.6 254.669 107.833 249.669 106.5C245.135 106.5 240.669 107.067 236.269 108.2V134.4ZM289.738 169L319.438 101.2H320.938L350.638 169H339.738L332.238 151H302.538L295.138 169H289.738ZM304.038 147.2H330.638L317.438 114.8L304.038 147.2ZM387.96 169H378.26V144.4L355.66 102.8H366.56L385.06 140.8L402.36 102.8H407.36L387.96 143.9V169ZM468.024 136.2V169H458.324V102.8H468.024V132.4H498.324V102.8H508.024V169H498.324V136.2H468.024ZM563.6 101.6C572.267 101.6 579.433 104.467 585.1 110.2C590.767 115.867 593.6 123.767 593.6 133.9C593.6 140.433 592.467 146.167 590.2 151.1C587.933 155.967 584.967 159.733 581.3 162.4C574.167 167.6 566.3 170.2 557.7 170.2C549.1 170.2 541.967 167.333 536.3 161.6C530.7 155.8 527.9 147.833 527.9 137.7C527.9 132.433 528.633 127.7 530.1 123.5C531.633 119.233 533.6 115.767 536 113.1C538.467 110.433 541.3 108.2 544.5 106.4C550.367 103.2 556.733 101.6 563.6 101.6ZM543.5 157.6C545.233 160.533 547.567 162.833 550.5 164.5C553.433 166.1 556.8 166.9 560.6 166.9C564.467 166.9 567.9 165.933 570.9 164C573.9 162.067 576.233 159.533 577.9 156.4C581.3 150.133 583 143.4 583 136.2C583 127.333 581.233 120.2 577.7 114.8C573.767 108.733 567.267 105.7 558.2 105.7C551.733 107.967 546.833 111.867 543.5 117.4C540.167 122.933 538.5 129.2 538.5 136.2C538.5 144.733 540.167 151.867 543.5 157.6ZM662.661 102.8V143.4C662.661 149.6 661.994 154.267 660.661 157.4C660.061 158.8 659.094 160.4 657.761 162.2C656.494 163.933 654.994 165.333 653.261 166.4C648.861 168.933 643.361 170.2 636.761 170.2C620.228 170.2 611.961 161.7 611.961 144.7V102.8H622.161V145.5C622.161 147.433 622.194 149 622.261 150.2C622.328 151.4 622.661 153.1 623.261 155.3C623.928 157.5 624.794 159.267 625.861 160.6C626.994 161.933 628.728 163.133 631.061 164.2C633.461 165.267 636.294 165.8 639.561 165.8C652.028 165.8 658.261 159.133 658.261 145.8V102.8H662.661ZM693.884 114.3C693.884 117.233 695.017 119.967 697.284 122.5C699.617 124.967 702.417 127.167 705.684 129.1C709.017 130.967 712.317 132.9 715.584 134.9C718.85 136.833 721.617 139.233 723.884 142.1C726.217 144.967 727.384 148.133 727.384 151.6C727.384 157.067 725.35 161.533 721.284 165C717.284 168.467 711.85 170.2 704.984 170.2C698.117 170.2 691.317 168.9 684.584 166.3V161.6C691.384 165 697.15 166.7 701.884 166.7C706.684 166.7 710.417 165.533 713.084 163.2C715.75 160.867 717.084 157.633 717.084 153.5C717.084 150.7 715.984 148.167 713.784 145.9C711.584 143.567 708.917 141.567 705.784 139.9C702.65 138.167 699.517 136.4 696.384 134.6C693.25 132.8 690.584 130.533 688.384 127.8C686.184 125 685.084 121.633 685.084 117.7C685.084 113.767 686.817 110.1 690.284 106.7C693.817 103.3 699.05 101.6 705.984 101.6C710.517 101.6 716.25 102.633 723.184 104.7L722.184 111.5C713.184 107.633 705.484 105.7 699.084 105.7C695.617 107.367 693.884 110.233 693.884 114.3ZM749.75 169V102.8H789.85L788.85 109.5L770.25 106.4C766.983 106.4 763.383 106.967 759.45 108.1V132.4H781.65V136.2H759.45V165.4L790.45 162.3L789.45 169H749.75Z"
            fill="black" />
        <path
            d="M192.9 140.5V136.5H188.9V140.5H192.9ZM202.6 140.5H206.6V136.5H202.6V140.5ZM202.6 166.8L204.071 170.52L206.6 169.52V166.8H202.6ZM156.6 162.4L154.2 165.6L154.215 165.611L154.229 165.622L156.6 162.4ZM148.3 152.2L144.7 153.944L144.705 153.955L144.711 153.966L148.3 152.2ZM147.6 124.3L151.322 125.764L151.326 125.754L151.33 125.744L147.6 124.3ZM153.8 114L150.902 111.243L150.884 111.262L150.866 111.281L153.8 114ZM162.8 107L160.823 103.523L160.823 103.523L162.8 107ZM193.2 102.6L192.43 106.525L193.2 102.6ZM201 104.7L204.956 105.29L205.42 102.182L202.509 100.996L201 104.7ZM200 111.4L198.444 115.085L203.195 117.091L203.956 111.99L200 111.4ZM177.6 105.7V101.7H177.093L176.603 101.826L177.6 105.7ZM161.6 116.4L158.367 114.045L158.357 114.058L158.348 114.071L161.6 116.4ZM163.5 158.8L160.618 161.574L160.627 161.583L160.636 161.592L163.5 158.8ZM192.9 165.7L193.848 169.586L196.9 168.842V165.7H192.9ZM192.9 144.5H202.6V136.5H192.9V144.5ZM198.6 140.5V166.8H206.6V140.5H198.6ZM201.129 163.08C195.984 165.114 189.611 166.2 181.9 166.2V174.2C190.323 174.2 197.749 173.019 204.071 170.52L201.129 163.08ZM181.9 166.2C172.848 166.2 165.271 163.814 158.971 159.178L154.229 165.622C162.063 171.386 171.352 174.2 181.9 174.2V166.2ZM159 159.2C156.077 157.008 153.701 154.115 151.889 150.434L144.711 153.966C147.033 158.685 150.19 162.592 154.2 165.6L159 159.2ZM151.9 150.456C150.118 146.777 149.2 142.68 149.2 138.1H141.2C141.2 143.786 142.349 149.089 144.7 153.944L151.9 150.456ZM149.2 138.1C149.2 133.382 149.935 129.291 151.322 125.764L143.878 122.836C142.065 127.442 141.2 132.551 141.2 138.1H149.2ZM151.33 125.744C152.782 121.995 154.603 119.019 156.734 116.719L150.866 111.281C147.931 114.448 145.618 118.339 143.87 122.856L151.33 125.744ZM156.698 116.757C159.018 114.318 161.705 112.224 164.777 110.477L160.823 103.523C157.095 105.643 153.782 108.216 150.902 111.243L156.698 116.757ZM164.777 110.477C170.481 107.235 176.762 105.6 183.7 105.6V97.6C175.438 97.6 167.786 99.565 160.823 103.523L164.777 110.477ZM183.7 105.6C186.334 105.6 189.24 105.9 192.43 106.525L193.97 98.6747C190.36 97.967 186.933 97.6 183.7 97.6V105.6ZM192.43 106.525C195.741 107.174 198.046 107.816 199.491 108.404L202.509 100.996C200.354 100.118 197.459 99.359 193.97 98.6747L192.43 106.525ZM197.044 104.11L196.044 110.81L203.956 111.99L204.956 105.29L197.044 104.11ZM201.556 107.715C192.341 103.824 184.304 101.7 177.6 101.7V109.7C182.763 109.7 189.659 111.376 198.444 115.085L201.556 107.715ZM176.603 101.826C169.01 103.781 162.87 107.862 158.367 114.045L164.833 118.755C168.196 114.138 172.723 111.086 178.597 109.574L176.603 101.826ZM158.348 114.071C153.914 120.263 151.8 127.715 151.8 136.2H159.8C159.8 129.085 161.552 123.337 164.852 118.729L158.348 114.071ZM151.8 136.2C151.8 146.632 154.564 155.284 160.618 161.574L166.382 156.026C162.169 151.649 159.8 145.235 159.8 136.2H151.8ZM160.636 161.592C166.631 167.743 174.489 170.7 183.8 170.7V162.7C176.311 162.7 170.636 160.39 166.364 156.008L160.636 161.592ZM183.8 170.7C187.396 170.7 190.753 170.341 193.848 169.586L191.952 161.814C189.58 162.393 186.871 162.7 183.8 162.7V170.7ZM196.9 165.7V140.5H188.9V165.7H196.9ZM236.269 137.4V133.4H232.269V137.4H236.269ZM236.269 169V173H240.269V169H236.269ZM226.469 169H222.469V173H226.469V169ZM226.469 102.8V98.8H222.469V102.8H226.469ZM264.569 107.3L262.268 110.572L262.28 110.58L262.292 110.589L264.569 107.3ZM265.869 130.8L268.412 133.888L268.418 133.883L265.869 130.8ZM251.969 136.6L251.253 132.665L244.533 133.886L248.887 139.149L251.969 136.6ZM278.769 169L279.248 172.971L286.519 172.094L281.851 166.451L278.769 169ZM267.169 170.4L263.896 172.7L265.273 174.658L267.648 174.371L267.169 170.4ZM243.969 137.4L247.241 135.099L246.046 133.4H243.969V137.4ZM236.269 134.4H232.269V138.4H236.269V134.4ZM259.469 114.8L255.711 116.172L255.732 116.229L255.755 116.286L259.469 114.8ZM249.669 106.5L250.699 102.635L250.193 102.5H249.669V106.5ZM236.269 108.2L235.271 104.326L232.269 105.1V108.2H236.269ZM232.269 137.4V169H240.269V137.4H232.269ZM236.269 165H226.469V173H236.269V165ZM230.469 169V102.8H222.469V169H230.469ZM226.469 106.8H248.069V98.8H226.469V106.8ZM248.069 106.8C254.217 106.8 258.847 108.167 262.268 110.572L266.869 104.028C261.757 100.433 255.387 98.8 248.069 98.8V106.8ZM262.292 110.589C265.633 112.902 267.069 115.682 267.069 119.2H275.069C275.069 112.852 272.171 107.698 266.846 104.011L262.292 110.589ZM267.069 119.2C267.069 122.985 265.785 125.679 263.32 127.717L268.418 133.883C272.886 130.188 275.069 125.148 275.069 119.2H267.069ZM263.326 127.712C260.606 129.952 256.676 131.679 251.253 132.665L252.684 140.535C258.995 139.388 264.331 137.248 268.412 133.888L263.326 127.712ZM248.887 139.149L275.687 171.549L281.851 166.451L255.051 134.051L248.887 139.149ZM278.289 165.029L266.689 166.429L267.648 174.371L279.248 172.971L278.289 165.029ZM270.441 168.1L247.241 135.099L240.696 139.7L263.896 172.7L270.441 168.1ZM243.969 133.4H236.269V141.4H243.969V133.4ZM236.269 138.4H242.669V130.4H236.269V138.4ZM242.669 138.4C249.086 138.4 254.638 137.152 258.646 133.99C262.835 130.686 264.669 125.836 264.669 120.2H256.669C256.669 124.031 255.502 126.281 253.691 127.71C251.7 129.281 248.251 130.4 242.669 130.4V138.4ZM264.669 120.2C264.669 117.948 264.11 115.633 263.183 113.314L255.755 116.286C256.427 117.967 256.669 119.252 256.669 120.2H264.669ZM263.226 113.428C261.17 107.795 256.732 104.244 250.699 102.635L248.638 110.365C252.605 111.423 254.701 113.405 255.711 116.172L263.226 113.428ZM249.669 102.5C244.798 102.5 239.996 103.109 235.271 104.326L237.266 112.074C241.341 111.024 245.473 110.5 249.669 110.5V102.5ZM232.269 108.2V134.4H240.269V108.2H232.269ZM289.738 169L286.074 167.395L283.619 173H289.738V169ZM319.438 101.2V97.2H316.824L315.774 99.595L319.438 101.2ZM320.938 101.2L324.602 99.595L323.553 97.2H320.938V101.2ZM350.638 169V173H356.757L354.302 167.395L350.638 169ZM339.738 169L336.046 170.538L337.072 173H339.738V169ZM332.238 151L335.931 149.462L334.905 147H332.238V151ZM302.538 151V147H299.858L298.839 149.479L302.538 151ZM295.138 169V173H297.819L298.838 170.521L295.138 169ZM304.038 147.2L300.342 145.671L298.055 151.2H304.038V147.2ZM330.638 147.2V151.2H336.587L334.343 145.691L330.638 147.2ZM317.438 114.8L321.143 113.291L317.466 104.267L313.742 113.271L317.438 114.8ZM293.402 170.605L323.102 102.805L315.774 99.595L286.074 167.395L293.402 170.605ZM319.438 105.2H320.938V97.2H319.438V105.2ZM317.274 102.805L346.974 170.605L354.302 167.395L324.602 99.595L317.274 102.805ZM350.638 165H339.738V173H350.638V165ZM343.431 167.462L335.931 149.462L328.546 152.538L336.046 170.538L343.431 167.462ZM332.238 147H302.538V155H332.238V147ZM298.839 149.479L291.439 167.479L298.838 170.521L306.238 152.521L298.839 149.479ZM295.138 165H289.738V173H295.138V165ZM304.038 151.2H330.638V143.2H304.038V151.2ZM334.343 145.691L321.143 113.291L313.734 116.309L326.934 148.709L334.343 145.691ZM313.742 113.271L300.342 145.671L307.735 148.729L321.135 116.329L313.742 113.271ZM387.96 169V173H391.96V169H387.96ZM378.26 169H374.26V173H378.26V169ZM378.26 144.4H382.26V143.384L381.775 142.491L378.26 144.4ZM355.66 102.8V98.8H348.935L352.145 104.709L355.66 102.8ZM366.56 102.8L370.157 101.049L369.062 98.8H366.56V102.8ZM385.06 140.8L381.464 142.551L385.181 150.187L388.701 142.457L385.06 140.8ZM402.36 102.8V98.8H399.786L398.72 101.143L402.36 102.8ZM407.36 102.8L410.977 104.507L413.671 98.8H407.36V102.8ZM387.96 143.9L384.343 142.193L383.96 143.003V143.9H387.96ZM387.96 165H378.26V173H387.96V165ZM382.26 169V144.4H374.26V169H382.26ZM381.775 142.491L359.175 100.891L352.145 104.709L374.745 146.309L381.775 142.491ZM355.66 106.8H366.56V98.8H355.66V106.8ZM362.964 104.551L381.464 142.551L388.657 139.049L370.157 101.049L362.964 104.551ZM388.701 142.457L406.001 104.457L398.72 101.143L381.42 139.143L388.701 142.457ZM402.36 106.8H407.36V98.8H402.36V106.8ZM403.743 101.093L384.343 142.193L391.577 145.607L410.977 104.507L403.743 101.093ZM383.96 143.9V169H391.96V143.9H383.96ZM468.024 136.2V132.2H464.024V136.2H468.024ZM468.024 169V173H472.024V169H468.024ZM458.324 169H454.324V173H458.324V169ZM458.324 102.8V98.8H454.324V102.8H458.324ZM468.024 102.8H472.024V98.8H468.024V102.8ZM468.024 132.4H464.024V136.4H468.024V132.4ZM498.324 132.4V136.4H502.324V132.4H498.324ZM498.324 102.8V98.8H494.324V102.8H498.324ZM508.024 102.8H512.024V98.8H508.024V102.8ZM508.024 169V173H512.024V169H508.024ZM498.324 169H494.324V173H498.324V169ZM498.324 136.2H502.324V132.2H498.324V136.2ZM464.024 136.2V169H472.024V136.2H464.024ZM468.024 165H458.324V173H468.024V165ZM462.324 169V102.8H454.324V169H462.324ZM458.324 106.8H468.024V98.8H458.324V106.8ZM464.024 102.8V132.4H472.024V102.8H464.024ZM468.024 136.4H498.324V128.4H468.024V136.4ZM502.324 132.4V102.8H494.324V132.4H502.324ZM498.324 106.8H508.024V98.8H498.324V106.8ZM504.024 102.8V169H512.024V102.8H504.024ZM508.024 165H498.324V173H508.024V165ZM502.324 169V136.2H494.324V169H502.324ZM498.324 132.2H468.024V140.2H498.324V132.2ZM585.1 110.2L582.255 113.012L582.263 113.02L582.272 113.028L585.1 110.2ZM590.2 151.1L593.826 152.789L593.83 152.779L593.835 152.77L590.2 151.1ZM581.3 162.4L578.947 159.165L578.944 159.168L581.3 162.4ZM536.3 161.6L533.422 164.378L533.439 164.395L533.455 164.412L536.3 161.6ZM530.1 123.5L526.336 122.147L526.33 122.164L526.324 122.181L530.1 123.5ZM536 113.1L533.064 110.384L533.045 110.404L533.027 110.424L536 113.1ZM544.5 106.4L542.585 102.888L542.562 102.901L542.539 102.914L544.5 106.4ZM543.5 157.6L540.042 159.61L540.049 159.623L540.056 159.635L543.5 157.6ZM550.5 164.5L548.524 167.978L548.554 167.995L548.585 168.012L550.5 164.5ZM570.9 164L573.067 167.362L573.067 167.362L570.9 164ZM577.9 156.4L574.384 154.492L574.376 154.507L574.369 154.522L577.9 156.4ZM577.7 114.8L574.344 116.976L574.348 116.983L574.353 116.99L577.7 114.8ZM558.2 105.7V101.7H557.519L556.877 101.925L558.2 105.7ZM543.5 117.4L546.926 119.464L546.926 119.464L543.5 117.4ZM563.6 105.6C571.287 105.6 577.4 108.1 582.255 113.012L587.945 107.388C581.467 100.834 573.247 97.6 563.6 97.6V105.6ZM582.272 113.028C587.002 117.759 589.6 124.532 589.6 133.9H597.6C597.6 123.001 594.531 113.974 587.928 107.372L582.272 113.028ZM589.6 133.9C589.6 139.972 588.547 145.116 586.565 149.43L593.835 152.77C596.386 147.217 597.6 140.895 597.6 133.9H589.6ZM586.574 149.411C584.541 153.776 581.972 156.965 578.947 159.165L583.653 165.635C587.961 162.502 591.326 158.157 593.826 152.789L586.574 149.411ZM578.944 159.168C572.475 163.883 565.429 166.2 557.7 166.2V174.2C567.171 174.2 575.858 171.317 583.656 165.632L578.944 159.168ZM557.7 166.2C550.09 166.2 544.006 163.707 539.145 158.788L533.455 164.412C539.927 170.96 548.11 174.2 557.7 174.2V166.2ZM539.178 158.822C534.471 153.947 531.9 147.076 531.9 137.7H523.9C523.9 148.591 526.929 157.653 533.422 164.378L539.178 158.822ZM531.9 137.7C531.9 132.802 532.582 128.525 533.876 124.819L526.324 122.181C524.685 126.875 523.9 132.065 523.9 137.7H531.9ZM533.864 124.853C535.267 120.95 536.998 117.97 538.973 115.776L533.027 110.424C530.202 113.563 528 117.516 526.336 122.147L533.864 124.853ZM538.936 115.816C541.117 113.459 543.62 111.484 546.461 109.886L542.539 102.914C538.98 104.916 535.816 107.408 533.064 110.384L538.936 115.816ZM546.415 109.912C551.678 107.041 557.383 105.6 563.6 105.6V97.6C556.083 97.6 549.055 99.3589 542.585 102.888L546.415 109.912ZM540.056 159.635C542.141 163.163 544.978 165.963 548.524 167.978L552.476 161.022C550.156 159.704 548.326 157.904 546.944 155.565L540.056 159.635ZM548.585 168.012C552.182 169.974 556.224 170.9 560.6 170.9V162.9C557.376 162.9 554.685 162.226 552.415 160.988L548.585 168.012ZM560.6 170.9C565.168 170.9 569.367 169.747 573.067 167.362L568.733 160.638C566.433 162.12 563.765 162.9 560.6 162.9V170.9ZM573.067 167.362C576.638 165.061 579.442 162.018 581.431 158.278L574.369 154.522C573.024 157.048 571.162 159.072 568.733 160.638L573.067 167.362ZM581.416 158.308C585.137 151.449 587 144.059 587 136.2H579C579 142.741 577.463 148.817 574.384 154.492L581.416 158.308ZM587 136.2C587 126.837 585.138 118.862 581.047 112.61L574.353 116.99C577.329 121.538 579 127.83 579 136.2H587ZM581.056 112.624C576.195 105.126 568.23 101.7 558.2 101.7V109.7C566.303 109.7 571.338 112.341 574.344 116.976L581.056 112.624ZM556.877 101.925C549.589 104.48 543.918 108.954 540.074 115.336L546.926 119.464C549.749 114.779 553.878 111.454 559.523 109.475L556.877 101.925ZM540.074 115.336C536.334 121.544 534.5 128.536 534.5 136.2H542.5C542.5 129.864 544 124.322 546.926 119.464L540.074 115.336ZM534.5 136.2C534.5 145.241 536.266 153.115 540.042 159.61L546.958 155.59C544.068 150.618 542.5 144.225 542.5 136.2H534.5ZM662.661 102.8H666.661V98.8H662.661V102.8ZM660.661 157.4L664.338 158.976L664.342 158.966L660.661 157.4ZM657.761 162.2L654.547 159.819L654.539 159.829L654.531 159.84L657.761 162.2ZM653.261 166.4L655.257 169.866L655.308 169.837L655.357 169.807L653.261 166.4ZM611.961 102.8V98.8H607.961V102.8H611.961ZM622.161 102.8H626.161V98.8H622.161V102.8ZM623.261 155.3L619.402 156.352L619.417 156.406L619.433 156.46L623.261 155.3ZM625.861 160.6L622.737 163.099L622.775 163.145L622.813 163.191L625.861 160.6ZM631.061 164.2L629.398 167.838L629.417 167.847L629.436 167.855L631.061 164.2ZM658.261 102.8V98.8H654.261V102.8H658.261ZM658.661 102.8V143.4H666.661V102.8H658.661ZM658.661 143.4C658.661 149.431 657.995 153.449 656.98 155.834L664.342 158.966C665.994 155.084 666.661 149.769 666.661 143.4H658.661ZM656.984 155.824C656.549 156.839 655.773 158.163 654.547 159.819L660.975 164.581C662.415 162.637 663.573 160.761 664.338 158.976L656.984 155.824ZM654.531 159.84C653.554 161.178 652.432 162.213 651.165 162.993L655.357 169.807C657.557 168.453 659.435 166.689 660.991 164.56L654.531 159.84ZM651.265 162.934C647.628 165.028 642.865 166.2 636.761 166.2V174.2C643.857 174.2 650.094 172.839 655.257 169.866L651.265 162.934ZM636.761 166.2C629.14 166.2 624.152 164.247 621.028 161.036C617.885 157.804 615.961 152.611 615.961 144.7H607.961C607.961 153.789 610.17 161.346 615.293 166.614C620.437 171.903 627.849 174.2 636.761 174.2V166.2ZM615.961 144.7V102.8H607.961V144.7H615.961ZM611.961 106.8H622.161V98.8H611.961V106.8ZM618.161 102.8V145.5H626.161V102.8H618.161ZM618.161 145.5C618.161 147.469 618.195 149.118 618.267 150.422L626.255 149.978C626.194 148.882 626.161 147.398 626.161 145.5H618.161ZM618.267 150.422C618.358 152.051 618.781 154.077 619.402 156.352L627.12 154.248C626.541 152.123 626.298 150.749 626.255 149.978L618.267 150.422ZM619.433 156.46C620.199 158.988 621.264 161.256 622.737 163.099L628.984 158.101C628.325 157.277 627.656 156.012 627.089 154.14L619.433 156.46ZM622.813 163.191C624.46 165.128 626.76 166.632 629.398 167.838L632.724 160.562C630.695 159.635 629.528 158.738 628.909 158.009L622.813 163.191ZM629.436 167.855C632.456 169.197 635.867 169.8 639.561 169.8V161.8C636.721 161.8 634.465 161.336 632.685 160.545L629.436 167.855ZM639.561 169.8C646.482 169.8 652.389 167.937 656.508 163.532C660.579 159.178 662.261 153.019 662.261 145.8H654.261C654.261 151.914 652.826 155.756 650.664 158.068C648.549 160.33 645.106 161.8 639.561 161.8V169.8ZM662.261 145.8V102.8H654.261V145.8H662.261ZM658.261 106.8H662.661V98.8H658.261V106.8ZM697.284 122.5L694.303 125.167L694.34 125.209L694.378 125.249L697.284 122.5ZM705.684 129.1L703.646 132.542L703.687 132.567L703.729 132.59L705.684 129.1ZM715.584 134.9L713.495 138.311L713.521 138.327L713.546 138.342L715.584 134.9ZM723.884 142.1L720.746 144.581L720.763 144.603L720.781 144.625L723.884 142.1ZM721.284 165L718.689 161.956L718.676 161.967L718.664 161.977L721.284 165ZM684.584 166.3H680.584V169.043L683.143 170.031L684.584 166.3ZM684.584 161.6L686.372 158.022L680.584 155.128V161.6H684.584ZM713.084 163.2L710.45 160.19L710.45 160.19L713.084 163.2ZM713.784 145.9L710.873 148.644L710.893 148.665L710.913 148.686L713.784 145.9ZM705.784 139.9L703.847 143.4L703.876 143.416L703.905 143.431L705.784 139.9ZM688.384 127.8L685.238 130.271L685.253 130.29L685.268 130.308L688.384 127.8ZM690.284 106.7L687.51 103.818L687.496 103.831L687.483 103.844L690.284 106.7ZM723.184 104.7L727.141 105.282L727.645 101.856L724.326 100.867L723.184 104.7ZM722.184 111.5L720.605 115.175L725.384 117.229L726.141 112.082L722.184 111.5ZM699.084 105.7V101.7H698.172L697.35 102.095L699.084 105.7ZM689.884 114.3C689.884 118.372 691.491 122.024 694.303 125.167L700.265 119.833C698.543 117.909 697.884 116.095 697.884 114.3H689.884ZM694.378 125.249C696.995 128.016 700.096 130.441 703.646 132.542L707.721 125.658C704.737 123.892 702.239 121.918 700.189 119.751L694.378 125.249ZM703.729 132.59C707.017 134.431 710.272 136.338 713.495 138.311L717.672 131.489C714.361 129.462 711.017 127.502 707.638 125.61L703.729 132.59ZM713.546 138.342C716.407 140.035 718.796 142.114 720.746 144.581L727.021 139.619C724.438 136.352 721.294 133.631 717.621 131.458L713.546 138.342ZM720.781 144.625C722.575 146.829 723.384 149.117 723.384 151.6H731.384C731.384 147.15 729.859 143.104 726.986 139.575L720.781 144.625ZM723.384 151.6C723.384 155.926 721.84 159.269 718.689 161.956L723.879 168.044C728.86 163.798 731.384 158.207 731.384 151.6H723.384ZM718.664 161.977C715.585 164.646 711.18 166.2 704.984 166.2V174.2C712.52 174.2 718.982 172.288 723.903 168.023L718.664 161.977ZM704.984 166.2C698.635 166.2 692.322 165 686.024 162.569L683.143 170.031C690.312 172.8 697.599 174.2 704.984 174.2V166.2ZM688.584 166.3V161.6H680.584V166.3H688.584ZM682.795 165.178C689.85 168.705 696.264 170.7 701.884 170.7V162.7C698.037 162.7 692.917 161.295 686.372 158.022L682.795 165.178ZM701.884 170.7C707.306 170.7 712.098 169.378 715.718 166.21L710.45 160.19C708.736 161.689 706.061 162.7 701.884 162.7V170.7ZM715.718 166.21C719.4 162.988 721.084 158.575 721.084 153.5H713.084C713.084 156.692 712.1 158.745 710.45 160.19L715.718 166.21ZM721.084 153.5C721.084 149.524 719.478 146.023 716.654 143.114L710.913 148.686C712.49 150.31 713.084 151.876 713.084 153.5H721.084ZM716.694 143.156C714.165 140.474 711.139 138.218 707.662 136.369L703.905 143.431C706.695 144.915 709.002 146.66 710.873 148.644L716.694 143.156ZM707.72 136.4C704.606 134.677 701.491 132.921 698.376 131.132L694.391 138.068C697.543 139.879 700.695 141.656 703.847 143.4L707.72 136.4ZM698.376 131.132C695.661 129.572 693.379 127.627 691.5 125.292L685.268 130.308C687.788 133.44 690.84 136.028 694.391 138.068L698.376 131.132ZM691.529 125.329C689.941 123.308 689.084 120.836 689.084 117.7H681.084C681.084 122.43 682.426 126.692 685.238 130.271L691.529 125.329ZM689.084 117.7C689.084 115.082 690.193 112.391 693.084 109.556L687.483 103.844C683.44 107.809 681.084 112.451 681.084 117.7H689.084ZM693.057 109.582C695.584 107.151 699.654 105.6 705.984 105.6V97.6C698.446 97.6 692.05 99.4493 687.51 103.818L693.057 109.582ZM705.984 105.6C709.97 105.6 715.286 106.52 722.041 108.533L724.326 100.867C717.215 98.7469 711.064 97.6 705.984 97.6V105.6ZM719.226 104.118L718.226 110.918L726.141 112.082L727.141 105.282L719.226 104.118ZM723.763 107.825C714.502 103.846 706.237 101.7 699.084 101.7V109.7C704.731 109.7 711.865 111.42 720.605 115.175L723.763 107.825ZM697.35 102.095C695.023 103.214 693.087 104.837 691.761 107.03C690.443 109.209 689.884 111.693 689.884 114.3H697.884C697.884 112.84 698.191 111.857 698.607 111.17C699.014 110.496 699.677 109.853 700.817 109.305L697.35 102.095ZM749.75 169H745.75V173H749.75V169ZM749.75 102.8V98.8H745.75V102.8H749.75ZM789.85 102.8L793.806 103.39L794.491 98.8H789.85V102.8ZM788.85 109.5L788.192 113.446L792.206 114.114L792.806 110.09L788.85 109.5ZM770.25 106.4L770.908 102.454L770.581 102.4H770.25V106.4ZM759.45 108.1L758.343 104.256L755.45 105.09V108.1H759.45ZM759.45 132.4H755.45V136.4H759.45V132.4ZM781.65 132.4H785.65V128.4H781.65V132.4ZM781.65 136.2V140.2H785.65V136.2H781.65ZM759.45 136.2V132.2H755.45V136.2H759.45ZM759.45 165.4H755.45V169.82L759.848 169.38L759.45 165.4ZM790.45 162.3L794.406 162.89L795.165 157.809L790.052 158.32L790.45 162.3ZM789.45 169V173H792.897L793.406 169.59L789.45 169ZM753.75 169V102.8H745.75V169H753.75ZM749.75 106.8H789.85V98.8H749.75V106.8ZM785.894 102.21L784.894 108.91L792.806 110.09L793.806 103.39L785.894 102.21ZM789.508 105.554L770.908 102.454L769.592 110.346L788.192 113.446L789.508 105.554ZM770.25 102.4C766.528 102.4 762.549 103.044 758.343 104.256L760.557 111.944C764.217 110.889 767.439 110.4 770.25 110.4V102.4ZM755.45 108.1V132.4H763.45V108.1H755.45ZM759.45 136.4H781.65V128.4H759.45V136.4ZM777.65 132.4V136.2H785.65V132.4H777.65ZM781.65 132.2H759.45V140.2H781.65V132.2ZM755.45 136.2V165.4H763.45V136.2H755.45ZM759.848 169.38L790.848 166.28L790.052 158.32L759.052 161.42L759.848 169.38ZM786.494 161.71L785.494 168.41L793.406 169.59L794.406 162.89L786.494 161.71ZM789.45 165H749.75V173H789.45V165Z"
            fill="#FADEC9" />
    </g>
    <defs>
        <filter id="filter0_d_204_5" x="0" y="0" width="940" height="273" filterUnits="userSpaceOnUse"
            color-interpolation-filters="sRGB">
            <feFlood flood-opacity="0" result="BackgroundImageFix" />
            <feColorMatrix in="SourceAlpha" type="matrix" values="0 0 0 0 0 0 0 0 0 0 0 0 0 0 0 0 0 0 127 0"
                result="hardAlpha" />
            <feOffset />
            <feGaussianBlur stdDeviation="7.5" />
            <feComposite in2="hardAlpha" operator="out" />
            <feColorMatrix type="matrix" values="0 0 0 0 0 0 0 0 0 0 0 0 0 0 0 0 0 0 0.58 0" />
            <feBlend mode="normal" in2="BackgroundImageFix" result="effect1_dropShadow_204_5" />
            <feBlend mode="normal" in="SourceGraphic" in2="effect1_dropShadow_204_5" result="shape" />
        </filter>
        <filter id="filter1_d_204_5" x="844.36" y="126.5" width="20.6401" height="20.6396" filterUnits="userSpaceOnUse"
            color-interpolation-filters="sRGB">
            <feFlood flood-opacity="0" result="BackgroundImageFix" />
            <feColorMatrix in="SourceAlpha" type="matrix" values="0 0 0 0 0 0 0 0 0 0 0 0 0 0 0 0 0 0 127 0"
                result="hardAlpha" />
            <feOffset dx="-3" dy="-3" />
            <feComposite in2="hardAlpha" operator="out" />
            <feColorMatrix type="matrix" values="0 0 0 0 0 0 0 0 0 0 0 0 0 0 0 0 0 0 1 0" />
            <feBlend mode="normal" in2="BackgroundImageFix" result="effect1_dropShadow_204_5" />
            <feBlend mode="normal" in="SourceGraphic" in2="effect1_dropShadow_204_5" result="shape" />
        </filter>
        <filter id="filter2_d_204_5" x="72" y="127.5" width="20.6401" height="20.6396" filterUnits="userSpaceOnUse"
            color-interpolation-filters="sRGB">
            <feFlood flood-opacity="0" result="BackgroundImageFix" />
            <feColorMatrix in="SourceAlpha" type="matrix" values="0 0 0 0 0 0 0 0 0 0 0 0 0 0 0 0 0 0 127 0"
                result="hardAlpha" />
            <feOffset dx="-3" dy="-3" />
            <feComposite in2="hardAlpha" operator="out" />
            <feColorMatrix type="matrix" values="0 0 0 0 0 0 0 0 0 0 0 0 0 0 0 0 0 0 1 0" />
            <feBlend mode="normal" in2="BackgroundImageFix" result="effect1_dropShadow_204_5" />
            <feBlend mode="normal" in="SourceGraphic" in2="effect1_dropShadow_204_5" result="shape" />
        </filter>
        <filter id="filter3_d_204_5" x="140.2" y="96.2002" width="650.25" height="74.2002" filterUnits="userSpaceOnUse"
            color-interpolation-filters="sRGB">
            <feFlood flood-opacity="0" result="BackgroundImageFix" />
            <feColorMatrix in="SourceAlpha" type="matrix" values="0 0 0 0 0 0 0 0 0 0 0 0 0 0 0 0 0 0 127 0"
                result="hardAlpha" />
            <feOffset dx="-5" dy="-5" />
            <feComposite in2="hardAlpha" operator="out" />
            <feColorMatrix type="matrix" values="0 0 0 0 0 0 0 0 0 0 0 0 0 0 0 0 0 0 1 0" />
            <feBlend mode="normal" in2="BackgroundImageFix" result="effect1_dropShadow_204_5" />
            <feBlend mode="normal" in="SourceGraphic" in2="effect1_dropShadow_204_5" result="shape" />
        </filter>
        <filter id="filter4_d_204_5" x="121.2" y="85.2002" width="685.25" height="109.2" filterUnits="userSpaceOnUse"
            color-interpolation-filters="sRGB">
            <feFlood flood-opacity="0" result="BackgroundImageFix" />
            <feColorMatrix in="SourceAlpha" type="matrix" values="0 0 0 0 0 0 0 0 0 0 0 0 0 0 0 0 0 0 127 0"
                result="hardAlpha" />
            <feOffset dx="-4" dy="4" />
            <feGaussianBlur stdDeviation="10" />
            <feComposite in2="hardAlpha" operator="out" />
            <feColorMatrix type="matrix" values="0 0 0 0 0.671667 0 0 0 0 0.596225 0 0 0 0 0.507668 0 0 0 0.23 0" />
            <feBlend mode="normal" in2="BackgroundImageFix" result="effect1_dropShadow_204_5" />
            <feBlend mode="normal" in="SourceGraphic" in2="effect1_dropShadow_204_5" result="shape" />
        </filter>
    </defs>
</svg>